<?xml version="1.0" encoding="utf-8"?>
<!-- Generator: Adobe Illustrator 24.2.3, SVG Export Plug-In . SVG Version: 6.00 Build 0)  -->
<svg version="1.1" id="Capa_1" xmlns="http://www.w3.org/2000/svg" xmlns:xlink="http://www.w3.org/1999/xlink" x="0px" y="0px"
	 viewBox="0 0 24 24" style="enable-background:new 0 0 24 24;" xml:space="preserve">
<style type="text/css">
	.st0{fill-rule:evenodd;clip-rule:evenodd;fill:#7542ED;}
	.st1{fill:#FFFFFF;}
	.st2{fill:url(#SVGID_1_);}
	.st3{fill:url(#SVGID_2_);}
	.st4{fill:url(#SVGID_3_);}
	.st5{fill:url(#SVGID_4_);}
	.st6{fill:url(#SVGID_5_);}
	.st7{fill:url(#SVGID_6_);}
	.st8{fill:url(#SVGID_7_);}
	.st9{fill:url(#SVGID_8_);}
	.st10{fill:url(#SVGID_9_);}
</style>
<path class="st0" d="M6.6,1H14l6.2,6.5v12.6c0,1.6-1.3,2.9-2.9,2.9H6.6c-1.6,0-2.9-1.3-2.9-2.9V3.9C3.8,2.3,5.1,1,6.6,1z"/>
<g>
	<path class="st1" d="M19.4,10.6v10.1c0,0.7-0.6,1.2-1.2,1.2H5.9c-0.7,0-1.2-0.6-1.2-1.2V10.6L5,10.1h13.9L19.4,10.6z"/>
	<linearGradient id="SVGID_1_" gradientUnits="userSpaceOnUse" x1="12" y1="7.3627" x2="12" y2="10.5371">
		<stop  offset="0" style="stop-color:#F56043"/>
		<stop  offset="1" style="stop-color:#F71E36"/>
	</linearGradient>
	<path class="st2" d="M19.4,8.4v2.2H4.6V8.4c0-0.7,0.6-1.2,1.2-1.2h12.3C18.8,7.2,19.4,7.7,19.4,8.4z"/>
	<path d="M8.1,17.9l0.5-0.7c0.3,0.3,0.7,0.5,1.1,0.5c0.5,0,0.8-0.2,0.8-0.6c0-0.4-0.3-0.7-1.4-0.7v-0.8c0.9,0,1.2-0.3,1.2-0.7
		c0-0.4-0.2-0.6-0.6-0.6c-0.4,0-0.6,0.2-0.9,0.4L8.3,14c0.5-0.4,1-0.6,1.6-0.6c1,0,1.7,0.5,1.7,1.4c0,0.5-0.3,0.9-0.8,1.1v0
		c0.6,0.2,1,0.6,1,1.2c0,0.9-0.9,1.5-1.9,1.5C9.1,18.6,8.5,18.3,8.1,17.9z"/>
	<path d="M12.7,17.6h1.1v-2.9h-0.9V14c0.5-0.1,0.9-0.2,1.2-0.5h0.9v4.1h0.9v0.9h-3.2V17.6z"/>
	<g>
		<radialGradient id="SVGID_2_" cx="7.1085" cy="8.4965" r="0.4536" gradientUnits="userSpaceOnUse">
			<stop  offset="0" style="stop-color:#9E0A1C"/>
			<stop  offset="0.8426" style="stop-color:#530209"/>
			<stop  offset="1" style="stop-color:#340002"/>
		</radialGradient>
		<circle class="st3" cx="7.1" cy="8.5" r="0.5"/>
		<linearGradient id="SVGID_3_" gradientUnits="userSpaceOnUse" x1="6.8345" y1="7.5762" x2="7.3825" y2="7.5762">
			<stop  offset="0" style="stop-color:#595959"/>
			<stop  offset="0.2929" style="stop-color:#C4C4C4"/>
			<stop  offset="0.6202" style="stop-color:#C4C4C4"/>
			<stop  offset="1" style="stop-color:#595959"/>
		</linearGradient>
		<path class="st4" d="M7.2,6.5H7.1c-0.1,0-0.2,0.1-0.2,0.2v1.6c0,0.1,0.1,0.2,0.2,0.2h0.1c0.1,0,0.2-0.1,0.2-0.2V6.8
			C7.4,6.6,7.3,6.5,7.2,6.5z"/>
	</g>
	<g>
		<radialGradient id="SVGID_4_" cx="10.3695" cy="8.4965" r="0.4536" gradientUnits="userSpaceOnUse">
			<stop  offset="0" style="stop-color:#9E0A1C"/>
			<stop  offset="0.8426" style="stop-color:#530209"/>
			<stop  offset="1" style="stop-color:#340002"/>
		</radialGradient>
		<circle class="st5" cx="10.4" cy="8.5" r="0.5"/>
		<linearGradient id="SVGID_5_" gradientUnits="userSpaceOnUse" x1="10.0955" y1="7.5762" x2="10.6435" y2="7.5762">
			<stop  offset="0" style="stop-color:#595959"/>
			<stop  offset="0.2929" style="stop-color:#C4C4C4"/>
			<stop  offset="0.6202" style="stop-color:#C4C4C4"/>
			<stop  offset="1" style="stop-color:#595959"/>
		</linearGradient>
		<path class="st6" d="M10.4,6.5h-0.1c-0.1,0-0.2,0.1-0.2,0.2v1.6c0,0.1,0.1,0.2,0.2,0.2h0.1c0.1,0,0.2-0.1,0.2-0.2V6.8
			C10.6,6.6,10.5,6.5,10.4,6.5z"/>
	</g>
	<g>
		<radialGradient id="SVGID_6_" cx="13.6305" cy="8.4965" r="0.4536" gradientUnits="userSpaceOnUse">
			<stop  offset="0" style="stop-color:#9E0A1C"/>
			<stop  offset="0.8426" style="stop-color:#530209"/>
			<stop  offset="1" style="stop-color:#340002"/>
		</radialGradient>
		<circle class="st7" cx="13.6" cy="8.5" r="0.5"/>
		<linearGradient id="SVGID_7_" gradientUnits="userSpaceOnUse" x1="13.3565" y1="7.5762" x2="13.9045" y2="7.5762">
			<stop  offset="0" style="stop-color:#595959"/>
			<stop  offset="0.2929" style="stop-color:#C4C4C4"/>
			<stop  offset="0.6202" style="stop-color:#C4C4C4"/>
			<stop  offset="1" style="stop-color:#595959"/>
		</linearGradient>
		<path class="st8" d="M13.7,6.5h-0.1c-0.1,0-0.2,0.1-0.2,0.2v1.6c0,0.1,0.1,0.2,0.2,0.2h0.1c0.1,0,0.2-0.1,0.2-0.2V6.8
			C13.9,6.6,13.8,6.5,13.7,6.5z"/>
	</g>
	<g>
		<radialGradient id="SVGID_8_" cx="16.8915" cy="8.4965" r="0.4536" gradientUnits="userSpaceOnUse">
			<stop  offset="0" style="stop-color:#9E0A1C"/>
			<stop  offset="0.8426" style="stop-color:#530209"/>
			<stop  offset="1" style="stop-color:#340002"/>
		</radialGradient>
		<circle class="st9" cx="16.9" cy="8.5" r="0.5"/>
		<linearGradient id="SVGID_9_" gradientUnits="userSpaceOnUse" x1="16.6175" y1="7.5762" x2="17.1655" y2="7.5762">
			<stop  offset="0" style="stop-color:#595959"/>
			<stop  offset="0.2929" style="stop-color:#C4C4C4"/>
			<stop  offset="0.6202" style="stop-color:#C4C4C4"/>
			<stop  offset="1" style="stop-color:#595959"/>
		</linearGradient>
		<path class="st10" d="M16.9,6.5h-0.1c-0.1,0-0.2,0.1-0.2,0.2v1.6c0,0.1,0.1,0.2,0.2,0.2h0.1c0.1,0,0.2-0.1,0.2-0.2V6.8
			C17.2,6.6,17.1,6.5,16.9,6.5z"/>
	</g>
</g>
</svg>
