<?xml version="1.0" encoding="utf-8"?>
<!-- Generator: Adobe Illustrator 24.2.3, SVG Export Plug-In . SVG Version: 6.00 Build 0)  -->
<svg version="1.1" id="Capa_1" xmlns="http://www.w3.org/2000/svg" xmlns:xlink="http://www.w3.org/1999/xlink" x="0px" y="0px"
	 viewBox="0 0 24 24" style="enable-background:new 0 0 24 24;" xml:space="preserve">
<style type="text/css">
	.st0{fill-rule:evenodd;clip-rule:evenodd;fill:#FFB11F;}
	.st1{opacity:0.302;fill-rule:evenodd;clip-rule:evenodd;fill:#FFFFFF;enable-background:new    ;}
	.st2{fill:#FFB11F;}
</style>
<path class="st0" d="M6.6,1H14l6.2,6.5v12.6c0,1.6-1.3,2.9-2.9,2.9H6.6c-1.6,0-2.9-1.3-2.9-2.9V3.9C3.8,2.3,5,1,6.6,1z"/>
<path class="st1" d="M14,1v6.4h6.2L14,1z"/>
<path d="M15.4,16.9c-0.9,1.3-3.7,4.7-3.7,4.7S9,18.2,8.1,16.9c-1.8-2.7-1.6-5.3,0.3-7.1c0.9-0.9,2.1-1.4,3.4-1.4s2.4,0.5,3.4,1.4
	C16.9,11.6,17.2,14.2,15.4,16.9z"/>
<circle class="st2" cx="11.7" cy="13.2" r="2.9"/>
</svg>
