<?xml version="1.0" encoding="utf-8"?>
<!-- Generator: Adobe Illustrator 24.2.3, SVG Export Plug-In . SVG Version: 6.00 Build 0)  -->
<svg version="1.1" id="Capa_1" xmlns="http://www.w3.org/2000/svg" xmlns:xlink="http://www.w3.org/1999/xlink" x="0px" y="0px"
	 viewBox="0 0 132 28" style="enable-background:new 0 0 132 28;" xml:space="preserve">
<style type="text/css">
	.st0{fill:#1D1D1B;}
	.st1{font-family:'Antonio-Regular';}
	.st2{font-size:29.1151px;}
	.st3{fill:#EB6807;}
</style>
<text transform="matrix(1 0 0 1 52.8254 26.2129)" class="st0 st1 st2">DISCERE</text>
<path class="st3" d="M29.2,3.3h7.2c0.2,0,0.4,0,0.6,0C43,3.3,47.8,8.1,47.8,14c0,5.9-4.8,10.7-10.7,10.7H3.1V28h33.9
	c7.7,0,14-6.3,14-14c0-7.7-6.3-14-14-14C34,0,31.2,1.3,29.2,3.3z"/>
<g>
	<g>
		<path class="st3" d="M14.5,9.3h22.8c2.5,0,4.5,2,4.5,4.5c0,2.5-2,4.5-4.5,4.5c-3.6,0-6.7-2.6-7.4-6h-3.4c0.8,5.3,5.3,9.3,10.8,9.3
			c4.3,0,7.8-3.5,7.8-7.8c0-4.3-3.5-7.8-7.8-7.8H15.5C15,7,14.7,8.1,14.5,9.3z"/>
	</g>
</g>
</svg>
