<svg id="Capa_1" data-name="Capa 1" xmlns="http://www.w3.org/2000/svg" viewBox="0 0 18.72 21.03"><defs><style>.cls-1{fill:#eb6807;}</style></defs><path class="cls-1" d="M4.52,3H9.91l.48,0a8,8,0,0,1,0,16.08H2.18v2.48h8.21a10.52,10.52,0,0,0,0-21A8.19,8.19,0,0,0,4.52,3Z" transform="translate(-2.18 -0.48)"/><path class="cls-1" d="M2.49,7.47h8.12a3.4,3.4,0,1,1,0,6.8A5.71,5.71,0,0,1,5,9.76H2.52a8.19,8.19,0,0,0,8.09,7A5.88,5.88,0,0,0,10.61,5H3.24A7.69,7.69,0,0,0,2.49,7.47Z" transform="translate(-2.18 -0.48)"/></svg>