<svg xmlns="http://www.w3.org/2000/svg" viewBox="0 0 529.79 110.22"><defs><style>.cls-1{fill:#fff;fill-rule:evenodd;}</style></defs><g id="Capa_2" data-name="Capa 2"><g id="Layer_1" data-name="Layer 1"><path class="cls-1" d="M178.9,50.88V24.46h-8.15v-7h22.37v7H185V50.88ZM400.09,28.83V19.5c-5.4-4.83-12.78-4.13-17.38,2a21,21,0,0,0-3.81,12.69c0,5.59,1.71,10.68,5.12,14.16,4.72,4.85,11.16,4.75,16.07.43V40.28c-3.54,3.89-9.28,6.34-12.94,1.24a12.33,12.33,0,0,1-2.06-7.43,12.74,12.74,0,0,1,2.07-7.51c3.06-4.32,7.66-3.48,11-.1l2,2.35Zm-74.8-15,2.14-2.8-1.51-2-3.61,4.72,3,0Zm-88.13,15V19.5c-5.41-4.83-12.79-4.14-17.38,2A21,21,0,0,0,216,34.17c0,5.59,1.71,10.68,5.11,14.16,4.71,4.82,11.14,4.77,16.08.43V40.28c-3.53,3.89-9.28,6.34-12.94,1.24a12.4,12.4,0,0,1-2.05-7.43,12.81,12.81,0,0,1,2.06-7.51c3.06-4.32,7.67-3.47,11-.1l2,2.35ZM364,35.1V32.34h-10.9v6.79h4.85V44a9,9,0,0,1-3.31.72c-4.81,0-7.81-4.67-7.81-10.77a12.06,12.06,0,0,1,2.27-7.51,6.87,6.87,0,0,1,9.42-1.91,13.77,13.77,0,0,1,3.55,3.43l.66-8.36a14.21,14.21,0,0,0-3.95-2.44c-4.91-2-10.54-.5-14.23,4.27q-3.91,5.07-3.91,12.81c0,10.26,5.7,17.75,13.58,17.75A18.35,18.35,0,0,0,364,48.58V35.1Zm5.14,15.78h6.13V17.46h-6.13V50.88ZM296,20.25V50.88h16.11V43.71h-10V17.46H296l0,2.79Zm-54.72,0V50.88h5.65V32.65l15,18.23h1.58V17.46h-5.65V35.88L242.76,17.46h-1.49v2.8Zm-44.32,0V50.88H212.9v-7h-10V37.24h5.76V30.4H202.9v-6h9.86v-6.9H197v2.79Zm69.7,13.92c0-9.72,5.55-17.79,13.08-17.79s13.07,8.07,13.07,17.79S287.36,52,279.74,52s-13.08-8.19-13.08-17.8Zm6.3,0c0,5.16,2.51,10.24,6.78,10.24s6.77-5,6.77-10.24-2.46-10.28-6.77-10.28S273,29,273,34.17Zm38.84,0a23.62,23.62,0,0,1,1-6.94c2-6.51,6.7-10.85,12.09-10.85,7.69,0,13.07,8.16,13.07,17.79S332.42,52,324.87,52s-13.07-8.26-13.07-17.8Zm6.29,0c0,5.16,2.5,10.24,6.78,10.24s6.77-5,6.77-10.24-2.45-10.28-6.77-10.28-6.78,5.1-6.78,10.28ZM415,16.38c5.34,0,10.19,4.32,12.11,10.81a24.08,24.08,0,0,1,1,7c0,9.66-5.45,17.8-13.08,17.8S402,43.75,402,34.23,407.39,16.38,415,16.38Zm-6.77,17.79c0,5.16,2.5,10.24,6.77,10.24s6.78-5,6.78-10.24S419.35,23.89,415,23.89,408.25,29,408.25,34.17Z"/><path class="cls-1" d="M475,78.43c-3.45-3.35-8.28-4.2-11.49.11-2.89,3.86-3,11,0,14.84,3.83,5,9.87,2.64,13.58-1.23v8.42c-5.15,4.29-11.9,4.38-16.86-.43-6.61-6.39-7.2-19.28-1.38-26.68,4.82-6.06,12.57-6.75,18.24-2v9.27L475,78.43ZM405,67.29l1.29-1.6-1.58-1.95-2.87,3.55Zm40.53,4.95v30.44h6.42V69.49h-6.41v2.75ZM424.23,85.51l-9.67,17.17h7l6.2-11.26,6.53,11.26h7.91L431.62,84.82l8.67-15.33h-7L428.08,79l-5.55-9.47h-6.21l7.91,16Zm-28.7-13.27v30.44h16.73v-7h-10.5V89.13h6.32v-6.8h-6.32v-6H412.1V69.49H395.53v2.75Zm-29.17-2.76-5.51,33.2h5.73l2.36-15.38,7.11,15.38h1.64l6.66-15.16,2.28,15.16h6.11l-5.45-33.19h-1.14L377.06,90l-9.65-20.53Zm119.55,16.6c0,5.13,2.62,10.18,7.1,10.18s7.11-5,7.11-10.18S497.54,75.86,493,75.86s-7.1,5.08-7.1,10.22Zm-6.62,0c0-9.52,5.72-17.67,13.72-17.67s13.72,8.1,13.72,17.67-5.8,17.68-13.72,17.68S479.29,95.57,479.29,86.08Z"/><path class="cls-1" d="M301.4,71.78v30.28h7.12c3.35,0,6.41-.39,9.38-2.49,4.32-3.06,6.61-7.85,6.61-14q0-7.69-4.25-12.1T308.52,69h-7.11v2.74Zm26.69,0v30.28h16.63v-7H334.28V88.58h6.79V81.82h-6.79v-6h10.29V69c-6.18,0-10.3,0-16.48,0v2.71Zm-62.94,30.28H282V95H271.55V69h-6.39v33Zm-29.41,0h6.44l1.73-4.81h10.86l1.7,4.81h6.69l-13-33H249l-13.25,33Zm10-10.49,3.56-10.34,3.48,10.34ZM210.65,71.78v30.28h5.88v-18L232.08,102h1.74V69h-5.9v18.2L212.18,69h-1.53v2.74Zm-40.08,0v30.28H177V69h-6.38v2.74Zm-7.36,6.16c-3.44-3.34-8.24-4.17-11.44.1a12.17,12.17,0,0,0-2.16,7.43,11.84,11.84,0,0,0,2.15,7.35c3.82,5,9.82,2.61,13.5-1.24V100c-5.14,4.29-11.86,4.34-16.78-.43-3.54-3.44-5.33-8.46-5.33-14a20.13,20.13,0,0,1,4-12.56c4.82-6.07,12.54-6.7,18.14-2v9.21l-2-2.32Zm-46,24.12h6.43l1.74-4.81h10.86l1.69,4.81h6.69l-13-33h-1.22l-13.24,33Zm10-10.49,3.56-10.34,3.47,10.34ZM92.11,102.06l0-33h1.51l15.74,18.2V69h5.9v33h-1.75L98,84.05v18Zm88.55-16.5c0-9.62,5.79-17.6,13.64-17.6,8,0,13.65,8.06,13.65,17.6s-5.68,17.58-13.65,17.58c-7.79,0-13.64-8-13.64-17.58Zm6.57,0c0,5.09,2.62,10.11,7.07,10.11s7.07-5,7.07-10.11-2.56-10.18-7.07-10.18-7.07,5-7.07,10.18ZM307.72,95V76.09h1.4a8.5,8.5,0,0,1,6.55,2.52,9.73,9.73,0,0,1,2.37,7,9.66,9.66,0,0,1-2.37,6.91,8.6,8.6,0,0,1-6.55,2.5Z"/><path class="cls-1" d="M521.17,86.83a8.64,8.64,0,1,1-8.64,8.59A8.56,8.56,0,0,1,521.17,86.83Zm0,1.15a7.47,7.47,0,1,0,7.42,7.47A7.44,7.44,0,0,0,521.15,88Z"/><path class="cls-1" d="M519.35,96.37v3.76H517.7v-9.4s0,0,0,0a30.13,30.13,0,0,1,5.29.17,2.54,2.54,0,0,1,1.57,4,2.68,2.68,0,0,1-1.72.92,3.05,3.05,0,0,0,.29.11,2.47,2.47,0,0,1,1.71,2.33c0,.65,0,1.31,0,2h-1.42c0-.29-.05-.56-.07-.84a12.81,12.81,0,0,0-.12-1.39,1.57,1.57,0,0,0-1.51-1.42C521,96.41,520.2,96.41,519.35,96.37Zm0-1.12c.48,0,1,0,1.41,0a8.46,8.46,0,0,0,1.43-.16,1.43,1.43,0,0,0,1.17-1.51,1.35,1.35,0,0,0-1-1.57,10.85,10.85,0,0,0-3-.19Z"/><path class="cls-1" d="M9.52,11a63.86,63.86,0,0,0-8.3,2.83V23.91c0,2.88-.28,2.23,2.74,2.32,16.3.54,25,2.73,37.25,10.29a21.72,21.72,0,0,0-2.68-8.6c-8.18-6-15.88-8.91-26-9.6C41.14,11.5,66.79,38.9,57.27,67.21c-2.3-.61-7-2.45-11.36,1.21,2.11,5.87.42,15-7.43,14.51.28,2.71-1.18,6.37-5.15,9.31-5.53,3.39-14.09,4.54-18.35,2-5.28.86-9.14-.7-13.72-3v4.84a25.75,25.75,0,0,0,8.26,3.21l2.09,9.34a2.79,2.79,0,0,0,2.72,1.55h14.1A2.82,2.82,0,0,0,31,108.67l2-9.61a46.09,46.09,0,0,0,5.5-1.84l7.28,6.43a2.7,2.7,0,0,0,3-.33l10.71-7.93a2.94,2.94,0,0,0,1.13-2.76l-4-8.81A46,46,0,0,0,60,79.12l9.72.92c1,0,1.73-.66,2.18-2l4-12.72a2.45,2.45,0,0,0-.66-2.85l-8.46-4.81a46.59,46.59,0,0,0-.05-5.79l8.4-5c.92-.49,1-1.53.54-3L71.44,31.3a2.16,2.16,0,0,0-2.16-1.9l-9.71,1.1a46.27,46.27,0,0,0-3.44-4.66L60,16.92a2.19,2.19,0,0,0-1.22-2.7L48,6.49a2.44,2.44,0,0,0-3-.27l-7.18,6.54A44.57,44.57,0,0,0,32.28,11L30.15,1.51C29.81.4,29-.07,27.5,0H14.23c-1.57,0-2.27.68-2.59,1.52L9.52,11ZM25.18,51.82h1.21a.23.23,0,0,1,.23.23v.47a.23.23,0,0,1-.23.23H25.18a.23.23,0,0,1-.23-.23v-.47a.23.23,0,0,1,.23-.23Zm3.17-20.3a3.8,3.8,0,1,1-4.66,2.7,3.81,3.81,0,0,1,4.66-2.7Zm.82,1.6A1.13,1.13,0,0,1,30,34.51a1.14,1.14,0,1,1-.81-1.39ZM25.78,49.53A2.76,2.76,0,1,1,23,52.28a2.75,2.75,0,0,1,2.75-2.75Zm0,1.36a1.4,1.4,0,1,1-1.39,1.39,1.39,1.39,0,0,1,1.39-1.39ZM33,34.19c2.76,1.16,5.6,2.41,8.23,3.82,0,.6-.09,1.22-.14,1.82a36.51,36.51,0,0,1-1,4.34c-4.06-1.77-11-2-15.36-.82a7.93,7.93,0,0,1-4.07-8.46l1,.29A5.72,5.72,0,0,0,33.09,35a4.93,4.93,0,0,0-.06-.78Zm-3.18,18c-.05-2.52-2-4-4.33-4.41a28.08,28.08,0,0,0-7.14-.36c5.06-4.14,15.47-4.24,21.07-2a10.32,10.32,0,0,0-9.6,6.77ZM1.51,30c-.49,0-.59-2.4.08-2.38,7.8.19,14.42.67,22,3.06a5.66,5.66,0,0,0-1.84,3.08C15.07,31.5,8.5,30.64,1.51,30Zm.07,4.15c-.59-.09-.59-3-.05-2.93,6.09.8,11.84,1.43,17.79,3.18a9.26,9.26,0,0,0-.05,3.63A139.93,139.93,0,0,0,1.58,34.18Zm0,5.25c-.5-.15-.81-3.78.12-3.62a178.42,178.42,0,0,1,18,3.71A13,13,0,0,0,22.6,44c-3.46,1.24-15.89-3.09-21-4.61Zm.13,8.67c-.49,0-1.51-7.31.33-6.8,5.79,1.62,11.81,3.42,17.63,4.06a15.3,15.3,0,0,0-2.88,2c-2,0-4,0-6,.08-3,.12-6.07.38-9.1.61Zm.1,5.12c-1,0-1-3.78,0-3.9a113.62,113.62,0,0,1,21.86-.49,4.08,4.08,0,0,0-.81,6.25,86.16,86.16,0,0,0-21-1.86Zm-.59,7.55V55.39a.73.73,0,0,1,.56-.77,59.48,59.48,0,0,1,12.36.19l.29,0A94.74,94.74,0,0,0,2.18,61.49a.77.77,0,0,1-.83,0c-.21-.15-.13-.43-.13-.69Zm29.77.7a13.08,13.08,0,0,1-3.84-5.35,4.07,4.07,0,0,0,2.28-2A10,10,0,0,0,31,60.47a6.76,6.76,0,0,0,.44.61c.48.55.14.83-.45.39ZM13.69,91.19C9.3,91.47,1.65,91,0,86A135.21,135.21,0,0,1,18.45,55.36l1.74.3c-4.91,11.57-6.3,23-6.5,35.53ZM2,76.4c-1.45.94-3.2-10.55,0-13C5.58,61,9,58.88,12.78,56.48l2.49-1.55,1.61.2c-.46.51-1.39,1.57-1.56,1.75C10.69,62,5.33,71.06,2,76.4Zm42.65-32c1.1.38-.22,4-1,3.81a2.8,2.8,0,0,0-2.31.52,35.58,35.58,0,0,1,2.36,6c.16.72.37,2.45-.45,2.93a9.4,9.4,0,0,1-2.83.39l-.19,1.36c.09.19.34.27.32.4a1.32,1.32,0,0,1-1.32.92c.12.46.44.65.32,1.36-.08.43-.88.49-1.43.78s-.28.46-.6.49l-.21,0c-7.62-1.33-7.88-10.95-2.18-14.63l1.75.57c.49.16.44.19-.1.37a5.35,5.35,0,0,1-.69.17c-.61.12-.67.1,0,.32s1.58.42,2.11.61c.27.1.26.19.47-.09a1.08,1.08,0,0,0,.06-1.08,1.78,1.78,0,0,0,1-.19c.55-.32.37-.52-.2-.49a3.48,3.48,0,0,1-1.11,0L36,48.32a7,7,0,0,1,4.85-1.55l.9-3.37,3,1ZM38.78,65.21c2.32,2,5.81.53,3.91,2C36.42,71.94,27.21,63.67,26,56.75h.82c1.29,2.8,1.69,3.91,4.38,5.94A8.64,8.64,0,0,0,36,64.5c1.66.15,1.42-.42,2.75.71Zm15.54-24.4c1.53,3.92,1.37,9.25-2.11,11.4-1.2.74-1.68-.08-.8-1a3.5,3.5,0,0,0,.43-3c-.91-3.22-6.91-5.32-9.75-6.19a18,18,0,0,0-1.15-12c5.7,1.63,11.13,5,13.38,10.74ZM17.59,92.33c-.9-9.75-.34-27.51,3.89-36.42.94.19,1.85.47,2.83.64,0,.16-.09,1.3-.1,1.4-.85,13.16,4.34,21.51,12,25.34-.84,8.55-11.67,10.46-18.58,9Zm26.86-23c1.81,3-.92,11.22-4.67,11.9C30,79.09,24,65.84,24.92,56.65l.42.05a11.09,11.09,0,0,0,.3,1.48C27.48,65.39,36.49,73.3,44.45,69.29Z"/></g></g></svg>