<svg xmlns="http://www.w3.org/2000/svg" viewBox="0 0 76.06 110.22"><defs><style>.cls-1{fill:#1b396a;fill-rule:evenodd;}</style></defs><g id="Capa_2" data-name="Capa 2"><g id="Layer_1" data-name="Layer 1"><path class="cls-1" d="M9.52,11a63.86,63.86,0,0,0-8.3,2.83V23.91c0,2.88-.28,2.23,2.74,2.32,16.3.54,25,2.73,37.25,10.29a21.72,21.72,0,0,0-2.68-8.6c-8.18-6-15.88-8.91-26-9.6C41.14,11.5,66.79,38.9,57.27,67.21c-2.3-.61-7-2.45-11.36,1.21,2.11,5.87.42,15-7.43,14.51.28,2.71-1.18,6.37-5.15,9.31-5.53,3.39-14.09,4.54-18.35,2-5.28.86-9.14-.7-13.72-3v4.84a25.75,25.75,0,0,0,8.26,3.21l2.09,9.34a2.79,2.79,0,0,0,2.72,1.55h14.1A2.82,2.82,0,0,0,31,108.67l2-9.61a46.09,46.09,0,0,0,5.5-1.84l7.28,6.43a2.7,2.7,0,0,0,3-.33l10.71-7.93a2.94,2.94,0,0,0,1.13-2.76l-4-8.81A46,46,0,0,0,60,79.12l9.72.92c1,0,1.73-.66,2.18-2l4-12.72a2.45,2.45,0,0,0-.66-2.85l-8.46-4.81a46.59,46.59,0,0,0-.05-5.79l8.4-5c.92-.49,1-1.53.54-3L71.44,31.3a2.16,2.16,0,0,0-2.16-1.9l-9.71,1.1a46.27,46.27,0,0,0-3.44-4.66L60,16.92a2.19,2.19,0,0,0-1.22-2.7L48,6.49a2.44,2.44,0,0,0-3-.27l-7.18,6.54A44.57,44.57,0,0,0,32.28,11L30.15,1.51C29.81.4,29-.07,27.5,0H14.23c-1.57,0-2.27.68-2.59,1.52L9.52,11ZM25.18,51.82h1.21a.23.23,0,0,1,.23.23v.47a.23.23,0,0,1-.23.23H25.18a.23.23,0,0,1-.23-.23v-.47a.23.23,0,0,1,.23-.23Zm3.17-20.3a3.8,3.8,0,1,1-4.66,2.7,3.81,3.81,0,0,1,4.66-2.7Zm.82,1.6A1.13,1.13,0,0,1,30,34.51a1.14,1.14,0,1,1-.81-1.39ZM25.78,49.53A2.76,2.76,0,1,1,23,52.28a2.75,2.75,0,0,1,2.75-2.75Zm0,1.36a1.4,1.4,0,1,1-1.39,1.39,1.39,1.39,0,0,1,1.39-1.39ZM33,34.19c2.76,1.16,5.6,2.41,8.23,3.82,0,.6-.09,1.22-.14,1.82a36.51,36.51,0,0,1-1,4.34c-4.06-1.77-11-2-15.36-.82a7.93,7.93,0,0,1-4.07-8.46l1,.29A5.72,5.72,0,0,0,33.09,35a4.93,4.93,0,0,0-.06-.78Zm-3.18,18c-.05-2.52-2-4-4.33-4.41a28.08,28.08,0,0,0-7.14-.36c5.06-4.14,15.47-4.24,21.07-2a10.32,10.32,0,0,0-9.6,6.77ZM1.51,30c-.49,0-.59-2.4.08-2.38,7.8.19,14.42.67,22,3.06a5.66,5.66,0,0,0-1.84,3.08C15.07,31.5,8.5,30.64,1.51,30Zm.07,4.15c-.59-.09-.59-3-.05-2.93,6.09.8,11.84,1.43,17.79,3.18a9.26,9.26,0,0,0-.05,3.63A139.93,139.93,0,0,0,1.58,34.18Zm0,5.25c-.5-.15-.81-3.78.12-3.62a178.42,178.42,0,0,1,18,3.71A13,13,0,0,0,22.6,44c-3.46,1.24-15.89-3.09-21-4.61Zm.13,8.67c-.49,0-1.51-7.31.33-6.8,5.79,1.62,11.81,3.42,17.63,4.06a15.3,15.3,0,0,0-2.88,2c-2,0-4,0-6,.08-3,.12-6.07.38-9.1.61Zm.1,5.12c-1,0-1-3.78,0-3.9a113.62,113.62,0,0,1,21.86-.49,4.08,4.08,0,0,0-.81,6.25,86.16,86.16,0,0,0-21-1.86Zm-.59,7.55V55.39a.73.73,0,0,1,.56-.77,59.48,59.48,0,0,1,12.36.19l.29,0A94.74,94.74,0,0,0,2.18,61.49a.77.77,0,0,1-.83,0c-.21-.15-.13-.43-.13-.69Zm29.77.7a13.08,13.08,0,0,1-3.84-5.35,4.07,4.07,0,0,0,2.28-2A10,10,0,0,0,31,60.47a6.76,6.76,0,0,0,.44.61c.48.55.14.83-.45.39ZM13.69,91.19C9.3,91.47,1.65,91,0,86A135.21,135.21,0,0,1,18.45,55.36l1.74.3c-4.91,11.57-6.3,23-6.5,35.53ZM2,76.4c-1.45.94-3.2-10.55,0-13C5.58,61,9,58.88,12.78,56.48l2.49-1.55,1.61.2c-.46.51-1.39,1.57-1.56,1.75C10.69,62,5.33,71.06,2,76.4Zm42.65-32c1.1.38-.22,4-1,3.81a2.8,2.8,0,0,0-2.31.52,35.58,35.58,0,0,1,2.36,6c.16.72.37,2.45-.45,2.93a9.4,9.4,0,0,1-2.83.39l-.19,1.36c.09.19.34.27.32.4a1.32,1.32,0,0,1-1.32.92c.12.46.44.65.32,1.36-.08.43-.88.49-1.43.78s-.28.46-.6.49l-.21,0c-7.62-1.33-7.88-10.95-2.18-14.63l1.75.57c.49.16.44.19-.1.37a5.35,5.35,0,0,1-.69.17c-.61.12-.67.1,0,.32s1.58.42,2.11.61c.27.1.26.19.47-.09a1.08,1.08,0,0,0,.06-1.08,1.78,1.78,0,0,0,1-.19c.55-.32.37-.52-.2-.49a3.48,3.48,0,0,1-1.11,0L36,48.32a7,7,0,0,1,4.85-1.55l.9-3.37,3,1ZM38.78,65.21c2.32,2,5.81.53,3.91,2C36.42,71.94,27.21,63.67,26,56.75h.82c1.29,2.8,1.69,3.91,4.38,5.94A8.64,8.64,0,0,0,36,64.5c1.66.15,1.42-.42,2.75.71Zm15.54-24.4c1.53,3.92,1.37,9.25-2.11,11.4-1.2.74-1.68-.08-.8-1a3.5,3.5,0,0,0,.43-3c-.91-3.22-6.91-5.32-9.75-6.19a18,18,0,0,0-1.15-12c5.7,1.63,11.13,5,13.38,10.74ZM17.59,92.33c-.9-9.75-.34-27.51,3.89-36.42.94.19,1.85.47,2.83.64,0,.16-.09,1.3-.1,1.4-.85,13.16,4.34,21.51,12,25.34-.84,8.55-11.67,10.46-18.58,9Zm26.86-23c1.81,3-.92,11.22-4.67,11.9C30,79.09,24,65.84,24.92,56.65l.42.05a11.09,11.09,0,0,0,.3,1.48C27.48,65.39,36.49,73.3,44.45,69.29Z"/></g></g></svg>